<svg width="32" height="32" viewBox="0 0 32 32" fill="none" xmlns="http://www.w3.org/2000/svg">
<path d="M29.7409 7.29421C28.8534 5.94592 27.744 4.7259 26.4126 3.63436C23.4572 1.21145 20.0402 0 16.1615 0C13.2364 0 10.5353 0.716673 8.05749 2.14882C5.8141 3.44593 3.99323 5.16092 2.59509 7.29421C2.44861 7.5173 2.30697 7.74477 2.17016 7.97722C0.722917 10.4308 0 13.1051 0 15.9999C0 17.0986 0.104021 18.1652 0.312063 19.2H6.98831C6.63923 18.2049 6.46459 17.1384 6.46459 15.9999C6.46459 13.3485 7.41103 11.0857 9.30433 9.21158C10.1301 8.39392 11.0304 7.75493 12.0053 7.29421C13.2662 6.69804 14.6514 6.40006 16.1615 6.40006C17.6715 6.40006 19.0179 6.69804 20.2841 7.29421C20.8062 7.53961 21.3098 7.8358 21.7949 8.18278C23.4572 9.37133 24.6268 10.9106 25.3044 12.8001H32C31.5769 10.774 30.824 8.93849 29.7409 7.29421Z" fill="#4AE0AA"/>
<path fillRule="evenodd" clip-rule="evenodd" d="M21.5223 15.9998C21.5223 18.9342 19.1195 21.3129 16.1555 21.3129C13.1914 21.3129 10.7886 18.9342 10.7886 15.9998C10.7886 13.0655 13.1914 10.6867 16.1555 10.6867C19.1195 10.6867 21.5223 13.0655 21.5223 15.9998ZM16.1609 32C16.4653 32 16.7667 31.9926 17.0655 31.9777L16.4124 30.6961L15.8961 29.6828L14.9805 27.8856L14.429 26.8038L14.4289 26.8036C14.9456 26.8747 15.4695 26.9105 15.9992 26.9105C17.5179 26.9105 18.9909 26.6163 20.3772 26.0357C21.245 25.6724 22.0554 25.2075 22.7994 24.6468L21.8914 23.7465C21.8592 23.7702 21.8268 23.7937 21.7942 23.817C20.1321 25.0055 18.2541 25.6001 16.1608 25.6001C15.2864 25.6001 14.4538 25.5001 13.6629 25.3001L13.663 25.3003C12.0319 24.8882 10.5788 24.051 9.30379 22.7888C8.22335 21.7192 7.45114 20.523 6.98777 19.2003H0.311523C0.651955 20.8933 1.27145 22.5008 2.16962 24.0232C3.61625 26.4765 5.57876 28.4192 8.05695 29.8516C10.5347 31.2843 13.2359 32 16.1609 32ZM17.0661 31.9772C18.2437 31.9185 19.3781 31.7436 20.4688 31.453L19.8491 30.2292C18.7318 30.5144 17.583 30.6706 16.413 30.6957L17.0661 31.9772ZM28.4497 26.4342C27.8477 27.1172 27.1763 27.7608 26.4357 28.3649C24.8995 29.6174 23.2422 30.546 21.4638 31.1512L20.8488 29.9361C21.2186 29.814 21.5845 29.6772 21.9459 29.5258C23.741 28.7741 25.353 27.6981 26.7373 26.3277C26.9798 26.0878 27.2129 25.8408 27.4369 25.5873L28.4497 26.4342ZM30.37 22.4508L30.4553 24.5241V24.5245L30.0571 24.2534C29.7652 24.7343 29.4459 25.1994 29.099 25.6489L28.0858 24.8016C28.4041 24.3877 28.6996 23.9585 28.9717 23.5145L28.6328 23.2838L30.37 22.4508ZM26.1792 21.5724L26.0939 19.4991L24.3567 20.3321L24.6961 20.5631C24.18 21.5176 23.511 22.363 22.6891 23.0998L23.5891 23.9921C23.7122 23.8808 23.833 23.7663 23.9517 23.6487C24.6669 22.9406 25.2756 22.1525 25.7701 21.2944L26.179 21.5726L26.1792 21.5724ZM29.6333 17.385L30.0239 20.7407H30.0237L28.7074 19.8448L29.3682 20.2963C29.2639 20.5971 29.1487 20.8947 29.0229 21.1891C28.3153 22.8451 27.3022 24.3324 26.0119 25.6098C24.7216 26.8874 23.2191 27.8903 21.5463 28.5906C19.8145 29.3159 17.9748 29.6834 16.078 29.6834C16.0175 29.6834 15.9571 29.683 15.8968 29.6824L14.9811 27.8851C15.3185 27.9124 15.6581 27.9262 16 27.9262C17.6567 27.9262 19.2641 27.6049 20.7777 26.9711C22.2392 26.3592 23.5517 25.4831 24.6788 24.3673C25.8057 23.2517 26.6906 21.9522 27.3089 20.5053C27.4904 20.081 27.6461 19.6492 27.7765 19.211L27.2421 18.8472L29.6333 17.385Z" fill="white"/>
<path fillRule="evenodd" clip-rule="evenodd" d="M21.5223 15.9998C21.5223 18.9342 19.1195 21.3129 16.1555 21.3129C13.1914 21.3129 10.7886 18.9342 10.7886 15.9998C10.7886 13.0655 13.1914 10.6867 16.1555 10.6867C19.1195 10.6867 21.5223 13.0655 21.5223 15.9998ZM16.1609 32C16.4653 32 16.7667 31.9926 17.0655 31.9777L16.4124 30.6961L15.8961 29.6828L14.9805 27.8856L14.429 26.8038L14.4289 26.8036C14.9456 26.8747 15.4695 26.9105 15.9992 26.9105C17.5179 26.9105 18.9909 26.6163 20.3772 26.0357C21.245 25.6724 22.0554 25.2075 22.7994 24.6468L21.8914 23.7465C21.8592 23.7702 21.8268 23.7937 21.7942 23.817C20.1321 25.0055 18.2541 25.6001 16.1608 25.6001C15.2864 25.6001 14.4538 25.5001 13.6629 25.3001L13.663 25.3003C12.0319 24.8882 10.5788 24.051 9.30379 22.7888C8.22335 21.7192 7.45114 20.523 6.98777 19.2003H0.311523C0.651955 20.8933 1.27145 22.5008 2.16962 24.0232C3.61625 26.4765 5.57876 28.4192 8.05695 29.8516C10.5347 31.2843 13.2359 32 16.1609 32ZM17.0661 31.9772C18.2437 31.9185 19.3781 31.7436 20.4688 31.453L19.8491 30.2292C18.7318 30.5144 17.583 30.6706 16.413 30.6957L17.0661 31.9772ZM28.4497 26.4342C27.8477 27.1172 27.1763 27.7608 26.4357 28.3649C24.8995 29.6174 23.2422 30.546 21.4638 31.1512L20.8488 29.9361C21.2186 29.814 21.5845 29.6772 21.9459 29.5258C23.741 28.7741 25.353 27.6981 26.7373 26.3277C26.9798 26.0878 27.2129 25.8408 27.4369 25.5873L28.4497 26.4342ZM30.37 22.4508L30.4553 24.5241V24.5245L30.0571 24.2534C29.7652 24.7343 29.4459 25.1994 29.099 25.6489L28.0858 24.8016C28.4041 24.3877 28.6996 23.9585 28.9717 23.5145L28.6328 23.2838L30.37 22.4508ZM26.1792 21.5724L26.0939 19.4991L24.3567 20.3321L24.6961 20.5631C24.18 21.5176 23.511 22.363 22.6891 23.0998L23.5891 23.9921C23.7122 23.8808 23.833 23.7663 23.9517 23.6487C24.6669 22.9406 25.2756 22.1525 25.7701 21.2944L26.179 21.5726L26.1792 21.5724ZM29.6333 17.385L30.0239 20.7407H30.0237L28.7074 19.8448L29.3682 20.2963C29.2639 20.5971 29.1487 20.8947 29.0229 21.1891C28.3153 22.8451 27.3022 24.3324 26.0119 25.6098C24.7216 26.8874 23.2191 27.8903 21.5463 28.5906C19.8145 29.3159 17.9748 29.6834 16.078 29.6834C16.0175 29.6834 15.9571 29.683 15.8968 29.6824L14.9811 27.8851C15.3185 27.9124 15.6581 27.9262 16 27.9262C17.6567 27.9262 19.2641 27.6049 20.7777 26.9711C22.2392 26.3592 23.5517 25.4831 24.6788 24.3673C25.8057 23.2517 26.6906 21.9522 27.3089 20.5053C27.4904 20.081 27.6461 19.6492 27.7765 19.211L27.2421 18.8472L29.6333 17.385Z" fill="#4AE0AA"/>
</svg>
